<svg xmlns="http://www.w3.org/2000/svg" viewBox="0 0 32.68 29"><defs><style>.cls-1{fill:#1f9eb7;}.cls-2{fill:#5f5e5e;}.cls-3{fill:#7aab3a;}.cls-4{fill:#7bab3a;}.cls-5{fill:#bfca2a;}.cls-6{fill:#605e5e;}.cls-7{fill:#605f5f;}.cls-8{fill:#605f5e;}</style></defs><title>cooperativa</title><g id="Capa_2" data-name="Capa 2"><g id="Capa_1-2" data-name="Capa 1"><path class="cls-1" d="M21.48,0a2.13,2.13,0,0,1-.29.18,9.5,9.5,0,0,0-2.4,2s0,0-.05,0V0Z"/><path class="cls-2" d="M0,23.78a1.31,1.31,0,0,0,.27,0c.06,0,.07,0,.07.07q0,.61,0,1.22a.6.6,0,0,0,.42.59.57.57,0,0,0,.72-.54c0-.41,0-.82,0-1.24,0-.08,0-.11.1-.1s.18,0,.22,0,0,.15,0,.22c0,.35,0,.69,0,1a.86.86,0,0,1-.55.84.87.87,0,0,1-1-.14A.86.86,0,0,1,0,25.32s0,0,0-.05Z"/><path class="cls-1" d="M18.73,14.63a9.1,9.1,0,0,0,.69.86,9.4,9.4,0,0,0,4.28,2.8,9.05,9.05,0,0,0,1.95.34,10,10,0,0,0,1.92-.05c.07,0,.06,0,.06.07V19.7c0,.62,0,1.23,0,1.85,0,.08,0,.1-.1.1H12.4a9.63,9.63,0,0,1-4.24-1,9.37,9.37,0,0,1-2.74-2,9.12,9.12,0,0,1-2.33-4.49,10.12,10.12,0,0,1-.2-2.06q0-6,0-12C2.88,0,2.86,0,3,0H6c.11,0,.11,0,.11.11q0,6,0,12.09a6.23,6.23,0,0,0,1.4,4,6.36,6.36,0,0,0,3.67,2.25,5.87,5.87,0,0,0,1.41.13,7.21,7.21,0,0,0,2.63-.47,6.38,6.38,0,0,0,3.52-3.49Z"/><path class="cls-3" d="M16.21,6.34c0,2,0,3.94,0,5.91a3.73,3.73,0,0,1-2.44,3.47,4,4,0,0,1-1.73.2,3.67,3.67,0,0,1-1.28-.31A3.73,3.73,0,0,1,8.66,13a3,3,0,0,1-.07-.67q0-6.09,0-12.18c0-.09,0-.11.11-.11h7.41c.09,0,.11,0,.11.11Q16.21,3.23,16.21,6.34Z"/><path class="cls-4" d="M27.63,2.89c0,.33,0,.65,0,1,0,.08,0,.11-.1.09A5.08,5.08,0,1,0,26.6,14a4.6,4.6,0,0,0,.94-.11c.07,0,.09,0,.09.06q0,.89,0,1.78c0,.06,0,.08-.08.09a7.33,7.33,0,0,1-1.95.05,7,7,0,0,1-3.83-1.65,6.88,6.88,0,0,1-2.42-4.11,6.75,6.75,0,0,1,.94-5,7.35,7.35,0,0,1,3.71-3,6.77,6.77,0,0,1,2.05-.39,7.34,7.34,0,0,1,1.5.09c.07,0,.08,0,.08.1C27.63,2.23,27.63,2.56,27.63,2.89Z"/><path class="cls-5" d="M27.61,10.69a.11.11,0,0,1,0,.08c0,.52,0,1,0,1.57,0,.07,0,.1-.09.11A3.57,3.57,0,0,1,24,11.6a3.5,3.5,0,0,1-1.15-2.92,3.66,3.66,0,0,1,4.68-3.25s.08,0,.08.08c0,.55,0,1.09,0,1.64v0a2,2,0,0,0-1.75-.12,2,2,0,0,0-.95.79,2,2,0,0,0,.14,2.35,2,2,0,0,0,1.19.7A2,2,0,0,0,27.61,10.69Z"/><path class="cls-1" d="M25.63,8.93a1,1,0,1,1,1,1A1,1,0,0,1,25.63,8.93Z"/><path class="cls-2" d="M19.06,27.33a.84.84,0,0,1,.44-.14.57.57,0,0,1,.45.2s.06.05.11,0a.7.7,0,0,1,.63-.2.62.62,0,0,1,.49.64c0,.35,0,.7,0,1.05,0,.05,0,.07-.06.06H21c-.08,0-.11,0-.1-.1,0-.33,0-.66,0-1a.37.37,0,0,0-.2-.34.35.35,0,0,0-.37,0,.39.39,0,0,0-.17.35c0,.33,0,.66,0,1,0,.07,0,.09-.09.08s-.17,0-.22,0,0-.15,0-.22c0-.28,0-.57,0-.85a.37.37,0,0,0-.55-.34.39.39,0,0,0-.19.36c0,.33,0,.66,0,1,0,.07,0,.09-.09.09s-.23,0-.23-.23c0-.48,0-1,0-1.44,0-.07,0-.1.09-.09h.07C19,27.19,19,27.19,19.06,27.33Z"/><path class="cls-2" d="M2.29,24.33a1,1,0,0,1,.33-.13.76.76,0,0,1,.87.72c0,.31,0,.63,0,.94,0,.06,0,.1-.08.09s-.17,0-.22,0,0-.14,0-.21c0-.26,0-.53,0-.79a.42.42,0,0,0-.27-.4.41.41,0,0,0-.45.07.47.47,0,0,0-.16.38c0,.29,0,.59,0,.88,0,.07,0,.09-.09.09S2,25.9,2,25.72c0-.48,0-1,0-1.45,0-.07,0-.1.09-.09h.06C2.27,24.18,2.27,24.18,2.29,24.33Z"/><path class="cls-2" d="M14.41,28.54c0,.11,0,.21,0,.3s0,.06-.08.07a1.09,1.09,0,0,1-1.45-.72,1,1,0,0,1,.34-1.13,1.06,1.06,0,0,1,1.11-.2.1.1,0,0,1,.08.11c0,.08,0,.17,0,.27a.8.8,0,0,0-.7-.13.77.77,0,0,0-.42.3.79.79,0,0,0,0,1A.81.81,0,0,0,14.41,28.54Z"/><path class="cls-2" d="M17.94,24.25a.79.79,0,0,0-1.1,1.13.81.81,0,0,0,1.1.15c0,.1,0,.2,0,.3s0,.05,0,.06A1.09,1.09,0,0,1,16.38,25a1.07,1.07,0,0,1,.9-1.21,1.05,1.05,0,0,1,.61.07.07.07,0,0,1,.05.08C17.94,24,17.94,24.14,17.94,24.25Z"/><path class="cls-2" d="M4.08,24.18h.31c.05,0,.05,0,.06.07l.43,1.28,0,.09.2-.59c.09-.26.18-.51.26-.77a.09.09,0,0,1,.11-.07h.24l-.18.51-.42,1.19a.09.09,0,0,1-.1.07c-.31,0-.3,0-.41-.29l-.5-1.39Z"/><path class="cls-2" d="M30.34,25.62l.22-.64.25-.73s0-.07.09-.07h.26l-.22.6-.39,1.09c0,.05,0,.08-.1.08-.3,0-.29,0-.41-.29l-.5-1.39,0-.09h.31c.05,0,.05,0,.06.07l.43,1.28Z"/><path class="cls-2" d="M28.91,25.66v.09c0,.2,0,.2-.2.22a.72.72,0,0,1-.28,0,.41.41,0,0,1-.32-.44c0-.33,0-.65,0-1,0-.08,0-.11-.1-.1h-.12a.17.17,0,0,1-.18-.23s0,0,.06,0h.27c.05,0,.07,0,.07-.07s0-.18,0-.27,0-.07.06-.07h.19c.06,0,.07,0,.07.07s0,.17,0,.26,0,.07.07.07h.3c.06,0,.08,0,.08.08s0,.19-.19.19h-.2s-.06,0-.06.06c0,.31,0,.62,0,.92s.18.35.41.26Z"/><path class="cls-2" d="M8.69,26a.62.62,0,0,1-.61-.38s0-.07,0-.07h0c.09,0,.16,0,.22.07a.32.32,0,0,0,.3.16.25.25,0,0,0,.24-.14.25.25,0,0,0,0-.28.76.76,0,0,0-.2-.18L8.45,25a.45.45,0,0,1,.11-.77.51.51,0,0,1,.54.08c.11.09.09.22,0,.27a.07.07,0,0,1-.1,0,.26.26,0,0,0-.2-.12.2.2,0,0,0-.21.11.19.19,0,0,0,0,.22.69.69,0,0,0,.18.15,2.47,2.47,0,0,1,.3.21.46.46,0,0,1,0,.66A.57.57,0,0,1,8.69,26Z"/><path class="cls-2" d="M25.42,24.46a.55.55,0,0,1,.59-.28s.07,0,.06.07,0,.12,0,.17-.1,0-.15,0a.48.48,0,0,0-.38.24.85.85,0,0,0-.11.43c0,.25,0,.51,0,.76,0,.07,0,.09-.09.08h-.09a.14.14,0,0,1-.14-.16c0-.51,0-1,0-1.53,0-.05,0-.07.07-.07s.17,0,.22,0,0,.14,0,.21Z"/><path class="cls-2" d="M7.57,24.48a.56.56,0,0,1,.59-.27c.05,0,.08,0,.07.08a.38.38,0,0,0,0,0c0,.12,0,.12-.11.11a.5.5,0,0,0-.5.44,1.55,1.55,0,0,0,0,.34c0,.22,0,.44,0,.66,0,.05,0,.08-.07.08s-.25,0-.25-.25c0-.47,0-.95,0-1.42,0-.07,0-.09.09-.09s.22,0,.22.21C7.57,24.41,7.57,24.43,7.57,24.48Z"/><path class="cls-6" d="M16.67,27.88c0,.33,0,.66,0,1,0,.07,0,.09-.08.08s-.22,0-.22-.22c0-.62,0-1.23,0-1.85,0-.07,0-.1.09-.09s.21,0,.21.21S16.67,27.59,16.67,27.88Z"/><path class="cls-6" d="M29.4,25.07c0,.26,0,.53,0,.79,0,.06,0,.08-.08.08s-.23-.05-.23-.23c0-.48,0-1,0-1.45,0-.07,0-.09.09-.09s.22,0,.22.22S29.4,24.85,29.4,25.07Z"/><path class="cls-6" d="M23.41,28.08c0,.27,0,.53,0,.8,0,.06,0,.08-.08.08s-.22,0-.22-.22c0-.49,0-1,0-1.46,0-.07,0-.08.08-.08s.22,0,.22.22S23.41,27.85,23.41,28.08Z"/><path class="cls-6" d="M4,25.07c0,.26,0,.53,0,.79,0,.06,0,.08-.08.08s-.23,0-.23-.22c0-.48,0-1,0-1.45,0-.07,0-.09.09-.09s.21,0,.21.21Z"/><path class="cls-6" d="M9.71,25.07c0,.26,0,.52,0,.78,0,.07,0,.09-.09.09s-.22,0-.22-.22c0-.48,0-1,0-1.45,0-.07,0-.1.09-.1s.21,0,.21.21S9.71,24.84,9.71,25.07Z"/><path class="cls-7" d="M9.41,23.94a.15.15,0,1,1,.31,0,.15.15,0,1,1-.31,0Z"/><path class="cls-8" d="M29.4,23.94a.16.16,0,0,1-.31,0,.15.15,0,0,1,.15-.16A.15.15,0,0,1,29.4,23.94Z"/><path class="cls-7" d="M23.41,27a.15.15,0,0,1-.16.15A.15.15,0,0,1,23.1,27a.16.16,0,0,1,.31,0Z"/><path class="cls-7" d="M3.66,23.94a.15.15,0,0,1,.15-.16.16.16,0,1,1,0,.31A.15.15,0,0,1,3.66,23.94Z"/><path class="cls-2" d="M32.68,25.95h0c-.19,0-.22,0-.24-.2,0,0,0,0,0,0a.74.74,0,0,1-1.1-.08,1,1,0,0,1,.11-1.32.74.74,0,0,1,1,0l.06.06c0-.08,0-.15,0-.22s0-.06.05-.06h.21Q32.68,25.07,32.68,25.95Zm-.32-1.09a.54.54,0,0,0-.49-.38.51.51,0,0,0-.5.3.64.64,0,0,0,.05.72.51.51,0,0,0,.79.06.64.64,0,0,0,.18-.46A.56.56,0,0,0,32.35,24.86Z"/><path class="cls-2" d="M22,24.46a.89.89,0,0,1,.2-.16.75.75,0,0,1,.91.14,1,1,0,0,1,0,1.3.74.74,0,0,1-1.06,0l0,0s0,0,0,.06c0,.17,0,.34,0,.52s0,.06-.06.06c-.22,0-.22,0-.22-.21V24.39c0-.16.05-.21.22-.21s.06,0,.06.06S22,24.37,22,24.46Zm0,.7a.57.57,0,0,0,.6.55.58.58,0,0,0,.5-.53.6.6,0,0,0-.54-.71.58.58,0,0,0-.56.62S22,25.13,22,25.16Z"/><path class="cls-2" d="M11.28,24.45c0-.21,0-.4,0-.6s0-.08.07-.08.21,0,.21.2c0,.61,0,1.22,0,1.83,0,0,0,.11,0,.13a.19.19,0,0,1-.23-.12.52.52,0,0,1,0-.08s0,0,0,0A.75.75,0,0,1,10,25.57a1,1,0,0,1,.12-1.12.74.74,0,0,1,1-.08Zm0,.46a.57.57,0,0,0-.43-.43.49.49,0,0,0-.51.19.67.67,0,0,0,0,.88.48.48,0,0,0,.42.15.59.59,0,0,0,.5-.62A.47.47,0,0,0,11.25,24.92Z"/><path class="cls-2" d="M9.62,28.75a.81.81,0,0,1-.37.23.76.76,0,0,1-.82-.33,1,1,0,0,1,.12-1.21.73.73,0,0,1,1,0l.07.06s0-.05,0-.08,0-.25,0-.37,0-.22.23-.21c0,0,.06,0,.05.06s0,0,0,.05c0,.64,0,1.27,0,1.91,0,0,0,.11,0,.13s-.2,0-.23-.1A.68.68,0,0,1,9.62,28.75Zm-.07-.93a.53.53,0,0,0-.48-.33.52.52,0,0,0-.48.29.67.67,0,0,0,.08.77.51.51,0,0,0,.7.06.63.63,0,0,0,.23-.5A.63.63,0,0,0,9.55,27.81Z"/><path class="cls-2" d="M21.62,28.74a.55.55,0,0,1,0,.09s0,.11,0,.13a.19.19,0,0,1-.22-.09.22.22,0,0,1,0-.1c0-.63,0-1.26,0-1.88,0-.06,0-.09.08-.09s.19,0,.19.2v.48a.8.8,0,0,1,.4-.24.72.72,0,0,1,.72.22,1,1,0,0,1,0,1.31.74.74,0,0,1-1,0Zm1.05-.92a.53.53,0,0,0-.48-.33.51.51,0,0,0-.48.3.65.65,0,0,0,.07.73.5.5,0,0,0,.72.09.62.62,0,0,0,.24-.5A.63.63,0,0,0,22.67,27.82Z"/><path class="cls-2" d="M14.82,25.73a.76.76,0,0,1-1.26-.21,1,1,0,0,1,.25-1.17.73.73,0,0,1,.9,0l.11.09c0-.2,0-.39,0-.58s0-.09.09-.09.18,0,.18.18c0,.63,0,1.26,0,1.89,0,.08,0,.1-.1.1S14.83,25.89,14.82,25.73Zm0-.81a.57.57,0,0,0-.4-.43.48.48,0,0,0-.5.13.67.67,0,0,0,0,.95.51.51,0,0,0,.71,0,.67.67,0,0,0,.2-.49A.48.48,0,0,0,14.79,24.92Z"/><path class="cls-2" d="M24.9,27.45v-.18s0,0,0,0,.15,0,.23,0,0,0,0,.05,0,.15,0,.22c0,.46,0,.92,0,1.38,0,.09,0,.11-.11.11s-.16-.05-.18-.21a.9.9,0,0,1-.24.18.72.72,0,0,1-.8-.11,1,1,0,0,1,0-1.42.73.73,0,0,1,1,0S24.87,27.45,24.9,27.45Zm0,.47a.56.56,0,0,0-.46-.43.5.5,0,0,0-.5.23.66.66,0,0,0,0,.77.51.51,0,0,0,.81,0,.64.64,0,0,0,.16-.45A.47.47,0,0,0,24.86,27.92Z"/><path class="cls-2" d="M27.34,24.44c0-.07,0-.14,0-.2s0-.05.06-.06c.22,0,.22,0,.22.2,0,.49,0,1,0,1.47,0,.07,0,.1-.09.09s-.17,0-.19-.21a1,1,0,0,1-.27.19.74.74,0,0,1-.82-.16,1,1,0,0,1,0-1.38.74.74,0,0,1,1,0S27.3,24.43,27.34,24.44Zm-1.06.94a.54.54,0,0,0,.46.33.51.51,0,0,0,.47-.24.67.67,0,0,0-.06-.82.51.51,0,0,0-.75,0,.65.65,0,0,0-.18.48A.58.58,0,0,0,26.29,25.38Z"/><path class="cls-2" d="M13.05,24.45a1.94,1.94,0,0,1,0-.19c0-.15.13,0,.19-.07s.09,0,.09.07c0,.47,0,.94,0,1.41,0,.07,0,.14,0,.21s0,.07-.07.07-.18,0-.22-.21a.77.77,0,0,1-.38.22.73.73,0,0,1-.75-.26A1,1,0,0,1,12,24.4a.74.74,0,0,1,.95,0Zm0,.5a.57.57,0,0,0-.4-.46.48.48,0,0,0-.51.14.66.66,0,0,0,0,.93.5.5,0,0,0,.71,0,.67.67,0,0,0,.2-.49A1.12,1.12,0,0,0,13,25Z"/><path class="cls-2" d="M11.44,28.56c0,.1,0,.18,0,.27a.06.06,0,0,1,0,.07,1.25,1.25,0,0,1-.74.07A.81.81,0,0,1,10,28.2a1,1,0,0,1,.14-.67.82.82,0,0,1,1.08-.23.75.75,0,0,1,.31.54,1.61,1.61,0,0,1,0,.17.13.13,0,0,1-.12.15H10.39c-.07,0-.09,0-.08.09a.6.6,0,0,0,.74.46A1.11,1.11,0,0,0,11.44,28.56Zm-.21-.64c.06,0,.07,0,.06-.07a.49.49,0,0,0-.51-.4.5.5,0,0,0-.47.41s0,.06,0,.05h.87Z"/><path class="cls-2" d="M7,25.55a1.36,1.36,0,0,0,0,.2c0,.1,0,.13-.12.16a1.28,1.28,0,0,1-.64,0,.76.76,0,0,1-.63-.59,1,1,0,0,1,.17-.94.83.83,0,0,1,1-.16.75.75,0,0,1,.34.56s0,.08,0,.12,0,.19-.18.19H6c-.07,0-.1,0-.08.09a.6.6,0,0,0,.72.47A1.27,1.27,0,0,0,7,25.55Zm-.21-.63c.05,0,.07,0,.06-.07a.48.48,0,0,0-.46-.4.49.49,0,0,0-.51.4c0,.06,0,.08.06.08h.85Z"/><path class="cls-2" d="M24.86,25.55c0,.1,0,.19,0,.28s0,0,0,.06a1.22,1.22,0,0,1-.8.05.81.81,0,0,1-.58-.74,1,1,0,0,1,.17-.72.79.79,0,0,1,1.19-.06A1,1,0,0,1,25,25c0,.08-.06.13-.16.13h-1c-.05,0-.07,0-.06.07a.6.6,0,0,0,.7.49A1.13,1.13,0,0,0,24.86,25.55Zm-.21-.63s.07,0,.06-.06a.49.49,0,0,0-.49-.4.5.5,0,0,0-.49.41c0,.06,0,.06.06.06h.86Z"/><path class="cls-2" d="M17.7,29a.9.9,0,1,1,.88-.89A.88.88,0,0,1,17.7,29Zm0-1.51a.61.61,0,1,0,.59.61A.61.61,0,0,0,17.7,27.48Z"/><path class="cls-2" d="M15.35,29a.9.9,0,1,1,.88-.89A.89.89,0,0,1,15.35,29Zm0-1.51a.61.61,0,1,0,.59.61A.61.61,0,0,0,15.35,27.48Z"/><path class="cls-2" d="M18,25.08a.87.87,0,1,1,.85.9A.88.88,0,0,1,18,25.08Zm.87-.61a.61.61,0,1,0,.59.61A.6.6,0,0,0,18.86,24.47Z"/><path class="cls-2" d="M20.7,26a.9.9,0,1,1,.88-.9A.88.88,0,0,1,20.7,26Zm-.59-.9a.61.61,0,0,0,.59.62.61.61,0,0,0,0-1.22A.6.6,0,0,0,20.11,25.08Z"/></g></g></svg>