<svg xmlns="http://www.w3.org/2000/svg" viewBox="0 0 82.05 24.15"><defs><style>.cls-1,.cls-19{fill:#636266;}.cls-2{fill:#c1cb2a;}.cls-3{fill:#239eb8;}.cls-4{fill:#81ae39;}.cls-5{fill:#269444;}.cls-6{fill:#00424b;}.cls-7{fill:#2e4b24;}.cls-8{fill:#646266;}.cls-9{fill:#626165;}.cls-10{fill:#5f5e61;}.cls-11{fill:#5f5e62;}.cls-12{fill:#5f5d61;}.cls-13{fill:#5e5d60;}.cls-14{fill:#5c5b5f;}.cls-15{fill:#5d5c60;}.cls-16{fill:#5e5d61;}.cls-17{fill:#5d5b5f;}.cls-18{fill:#5ea13f;}.cls-19{font-size:3.79px;font-family:LibelSuitRg-Regular, Libel Suit;}.cls-20{letter-spacing:-0.01em;}.cls-21{letter-spacing:-0.03em;}.cls-22{letter-spacing:0em;}</style></defs><title>indesco</title><g id="Capa_2" data-name="Capa 2"><g id="Capa_1-2" data-name="Capa 1"><path class="cls-1" d="M6.63,6.37V7.66c.35-.3.59-.52.84-.71a4.18,4.18,0,0,1,5.38,0,4,4,0,0,1,1.32,3c.06,2.57,0,5.14.06,7.7,0,.23-.06.36-.31.34h-.12c-.62,0-1.4.25-1.8-.11s-.11-1.14-.11-1.73c0-1.66,0-3.31,0-5a7.43,7.43,0,0,0-.07-1.18A2.33,2.33,0,0,0,8.25,8.19,4.26,4.26,0,0,0,6.64,9.62c-.15.18-.07.4-.07.59,0,2.34,0,4.68,0,7,0,.69,0,.69-.68.7H5a1,1,0,0,1-.74-1c0-3.49,0-7,0-10.47,0-.09,0-.16.13-.18C5.14,6.42,5.9,6.2,6.63,6.37Z"/><path class="cls-1" d="M38.84,8.73a2.56,2.56,0,0,1,1.67-2.32,5.81,5.81,0,0,1,5.07.28.77.77,0,0,1,.48.67c-.07.58.14,1.18-.13,1.75A10.68,10.68,0,0,0,43.3,8.06a2.44,2.44,0,0,0-1.4.1.93.93,0,0,0-.36,1.6,5,5,0,0,0,1.31.93,13.24,13.24,0,0,1,2.58,1.7,3.46,3.46,0,0,1,1.27,2.34,3.36,3.36,0,0,1-3.51,3.45,2.65,2.65,0,0,0-1.24,0,7.22,7.22,0,0,1-3-.88.33.33,0,0,1-.24-.32c0-.74,0-1.47,0-2.3A11.76,11.76,0,0,0,41.27,16a3.07,3.07,0,0,0,1.83.15c.53-.15,1-.39,1.13-1a1.23,1.23,0,0,0-.7-1.28c-1-.61-1.94-1.19-2.9-1.81a3.89,3.89,0,0,1-1.69-2,1.3,1.3,0,0,1-.1-.67A.64.64,0,0,0,38.84,8.73Z"/><path class="cls-1" d="M56.75,9.12c-.51-.23-1-.49-1.53-.67a3.74,3.74,0,0,0-5.13,4.2A3.84,3.84,0,0,0,54.73,16a15.35,15.35,0,0,0,2.15-.57c.27.11.24.35.25.57,0,.51,0,1,0,1.54a6.36,6.36,0,0,1-2.61.61,4.05,4.05,0,0,0-1.49,0,5.32,5.32,0,0,1-4.85-3.37,7.13,7.13,0,0,1,.18-5.73,6,6,0,0,1,8-2.54.88.88,0,0,1,.51.58A6,6,0,0,1,56.75,9.12Z"/><path class="cls-2" d="M59.26,17.16a12.79,12.79,0,0,1-1.12-5.73,8.23,8.23,0,0,1,.32-2.07c.16.06.16.22.2.35a1.57,1.57,0,0,0,2.36,1c.2-.11.36-.37.65-.19a.87.87,0,0,1,.1.6,8.43,8.43,0,0,0,.76,4.54,4,4,0,0,0,.28.54l.11.21a2.4,2.4,0,0,0,.15.26c.09.12.17.26.27.37s.28.38.44.56.25.27.39.4l.24.22.13.11a9.72,9.72,0,0,0,2.69,1.59c.19.08.52,0,.48.42-.17.13-.39.11-.58.16a1.47,1.47,0,0,0-.82,2.3c.13.19.38.33.31.63s-.43.05-.64,0a21.38,21.38,0,0,1-2.39-1.11,1.79,1.79,0,0,0-.38-.33,7,7,0,0,0-.75-.53,21.85,21.85,0,0,1-1.77-1.8c-.18-.31-.4-.58-.61-.87l-.15-.19a4.12,4.12,0,0,1-.26-.48c-.08-.13-.16-.27-.24-.41A1.54,1.54,0,0,1,59.26,17.16Z"/><path class="cls-3" d="M58.72,8.42a10.79,10.79,0,0,1,3.7-5.6A11.8,11.8,0,0,1,72.65.29a.71.71,0,0,1,.16.08c-.09.18-.27.16-.43.2A1.54,1.54,0,0,0,71.44,3c.12.18.35.32.24.59a1.11,1.11,0,0,1-.78.11A8.38,8.38,0,0,0,62.23,9c-.07.18-.09.42-.36.46-.18-.14-.18-.36-.26-.55a1.54,1.54,0,0,0-2.34-.78C59.1,8.28,59,8.45,58.72,8.42Z"/><path class="cls-4" d="M81.5,15.52A11.65,11.65,0,0,1,81,17c-.06.09,0,.2,0,.3s-.15.32-.23.48-.09.18-.14.27-.17.25-.25.38-.18.26-.26.39a7,7,0,0,1-.49.66,11.66,11.66,0,0,1-2.09,2.07c-.17.14-.37.25-.53.41l-.19.17a17.67,17.67,0,0,1-2.49,1.22c-.33.11-.65.23-1,.31s-1,.22-1.46.34A12.29,12.29,0,0,1,68,24a.71.71,0,0,1-.39-.16c-.08-.28.17-.28.31-.35,1.3-.64,1.5-1.59.56-2.7-.09-.1-.23-.19-.12-.36s.44-.05.66,0a8.37,8.37,0,0,0,6.48-1.9,1.85,1.85,0,0,1,.29-.21,1.52,1.52,0,0,0,.32-.24,2.3,2.3,0,0,0,.28-.38,7.27,7.27,0,0,0,.65-.78l.14-.19.17-.25a2.26,2.26,0,0,0,.14-.27l.14-.3c.19-.39.34-.79.5-1.2.06-.14.07-.34.31-.32a.74.74,0,0,1,.15.46,1.5,1.5,0,0,0,2.35,1.05C81.1,15.71,81.25,15.51,81.5,15.52Z"/><path class="cls-1" d="M73.79.67a10.9,10.9,0,0,1,5.35,3.52A11.41,11.41,0,0,1,82,11.1a5.91,5.91,0,0,0,0,1.73,4.19,4.19,0,0,1-.22,1.52c-.2-.1-.25-.32-.36-.49A1.55,1.55,0,0,0,79,13.44c-.15.11-.23.38-.5.25a10.61,10.61,0,0,1,0-1.72,8.38,8.38,0,0,0-5.3-7.81c-.2-.08-.45-.1-.54-.36.08-.18.26-.18.41-.25A1.55,1.55,0,0,0,74,1.18C73.88,1,73.74.87,73.79.67Z"/><path class="cls-1" d="M2.52,6.37q0,5.72,0,11.44a3.86,3.86,0,0,1-1.6.1.85.85,0,0,1-.61-.61c0-3.48,0-7,0-10.43,0-.41.11-.62.57-.58A12.45,12.45,0,0,1,2.52,6.37Z"/><path class="cls-5" d="M58.72,8.42a1.93,1.93,0,0,1,1.76-.67,1.76,1.76,0,0,1,1.39,1.73.71.71,0,0,1-.25.93c-.87.77-1.57.91-2.33.48a1.65,1.65,0,0,1-.85-1.53A2.5,2.5,0,0,1,58.72,8.42Z"/><path class="cls-6" d="M73.79.67c.9,1.25.71,2.42-.47,3a2.19,2.19,0,0,1-.65.14.65.65,0,0,1-.87-.22A1.81,1.81,0,0,1,71,1.67,1.71,1.71,0,0,1,72.81.36,3,3,0,0,1,73.79.67Z"/><path class="cls-7" d="M78.54,13.7a1.75,1.75,0,0,1,1.74-.83,1.8,1.8,0,0,1,1.49,1.47,2.76,2.76,0,0,1-.28,1.16c-1,1-2,1-2.76.13a1.75,1.75,0,0,1-.37-1.26A.46.46,0,0,1,78.54,13.7Z"/><path class="cls-8" d="M2.66,3A1.35,1.35,0,0,1,1.15,4,1.41,1.41,0,0,1,0,2.64,1.41,1.41,0,0,1,1,1.27a1.34,1.34,0,0,1,1.62.88C2.65,2.43,2.63,2.72,2.66,3Z"/><path class="cls-9" d="M20.07,17.93c.19-.19.43-.11.65-.11,1.55,0,3.11,0,4.66,0,.4,0,.54-.12.54-.53q0-8.24,0-16.48c0-.4-.11-.57-.53-.54A5.75,5.75,0,0,1,24.05.2a.81.81,0,0,1,.17,0C26,.07,26,.07,26,1.88q0,7.59,0,15.17c0,1,.09.88-.91.88L20.4,18Z"/><path class="cls-10" d="M2.52,6.37c-.5,0-1,0-1.49,0S.4,6.51.41,7c0,3.22,0,6.44,0,9.66,0,.22.08.46-.1.65a1.16,1.16,0,0,1-.12-.72c0-3.26,0-6.52,0-9.79,0-.52.18-.65.63-.59S2,6,2.52,6.37Z"/><path class="cls-1" d="M5,17.92c.28-.22.6-.12.9-.1.46,0,.61-.12.6-.59,0-2.36,0-4.71,0-7.07,0-.18,0-.36,0-.55l0,0,.06,0c0,2.67,0,5.34,0,8,0,.33-.1.46-.43.42S5.41,18.14,5,17.92Z"/><path class="cls-11" d="M57.13,17.56c-.24,0-.13-.18-.13-.31a5.11,5.11,0,0,0-.11-1.8c.14-.1.34-.22.33.06A7.26,7.26,0,0,1,57.13,17.56Z"/><path class="cls-12" d="M56.75,9.12a7.88,7.88,0,0,1,.11-2,6.58,6.58,0,0,1,.09,2C57,9.23,56.84,9.22,56.75,9.12Z"/><path class="cls-13" d="M45.94,9.11c.07-.58-.14-1.18.13-1.75a6.58,6.58,0,0,1,.07,1.69C46.14,9.2,46,9.21,45.94,9.11Z"/><path class="cls-11" d="M.92,17.92a5,5,0,0,1,1.6-.1c0,.16,0,.23-.2.22A3.45,3.45,0,0,1,.92,17.92Z"/><path class="cls-14" d="M6.63,6.37A8.41,8.41,0,0,1,4.4,6.25l2,0C6.47,6.22,6.61,6.19,6.63,6.37Z"/><path class="cls-11" d="M82,12.83a2.89,2.89,0,0,1,0-1.73A6.89,6.89,0,0,1,82,12.83Z"/><path class="cls-15" d="M53,18.18a2.07,2.07,0,0,1,1.49,0A5.19,5.19,0,0,1,53,18.18Z"/><path class="cls-16" d="M2.66,3a.74.74,0,0,1,0-.87A.91.91,0,0,1,2.66,3Z"/><path class="cls-15" d="M42,18.18a1.44,1.44,0,0,1,1.24,0A4,4,0,0,1,42,18.18Z"/><path class="cls-17" d="M21.68,6a.94.94,0,0,1-1,0A2.62,2.62,0,0,1,21.68,6Z"/><path class="cls-15" d="M38.84,8.73a.41.41,0,0,1,0,.62A1,1,0,0,1,38.84,8.73Z"/><path class="cls-1" d="M21.68,6a9.28,9.28,0,0,1,2.11.38c0-1.89,0-3.75,0-5.61,0-.54.1-.8.7-.72S25.7-.17,26,.16s.11,1,.11,1.55c0,5.22,0,10.44,0,15.66,0,.55-.13.7-.68.68-1.43,0-2.86,0-4.29,0A1.79,1.79,0,0,1,20.4,18c.18-.15.4-.08.6-.08,1.47,0,2.94,0,4.41,0,.4,0,.58-.07.58-.53q0-8.3,0-16.59c0-.44-.14-.59-.57-.55a6.15,6.15,0,0,1-.92,0c0,.13,0,0,0,0C26,.12,26,.12,26,1.56,26,6.78,26,12,26,17.22c0,.5-.11.68-.64.66-1.55,0-3.11,0-4.66,0a1.26,1.26,0,0,0-.61.05,5,5,0,0,1-4.22-3.36,6.51,6.51,0,0,1,1.71-7.41A5,5,0,0,1,20.69,6,1.68,1.68,0,0,0,21.68,6ZM23,16.12c.26,0,.57.15.8-.11,0-2.34,0-4.67,0-7a.61.61,0,0,0-.47-.67,4.62,4.62,0,0,0-2.68-.24c-2,.43-3,2.11-2.87,4.59A3.19,3.19,0,0,0,21,16a.94.94,0,0,1,.24.06A6.14,6.14,0,0,0,23,16.12Z"/><path class="cls-1" d="M21.23,16.05l2.56,0a.23.23,0,0,1-.22.18c-1,0-2.08,0-3.12-.09Z"/><path class="cls-1" d="M37.61,14.59a9.14,9.14,0,0,0,0,1.3,1.32,1.32,0,0,1-.94,1.55,8.28,8.28,0,0,1-5.46.56,5.64,5.64,0,0,1-4-5.2,6.56,6.56,0,0,1,1.34-5,5.41,5.41,0,0,1,5.92-1.59,5.34,5.34,0,0,1,3.31,4.84,1.17,1.17,0,0,1-1.31,1.24c-2.11,0-4.22,0-6.34,0-.56,0-.65.16-.54.67a3.72,3.72,0,0,0,4.25,3A7.56,7.56,0,0,0,37.61,14.59ZM30,11h5.2c.11,0,.26,0,.32-.11A2.73,2.73,0,0,0,33.19,8,2.93,2.93,0,0,0,29.86,9.9c-.13.33-.36.66-.19,1.05A.38.38,0,0,0,30,11Z"/><path class="cls-11" d="M29.67,11l5.81,0a.24.24,0,0,1-.23.17H29.7s0,0,0,0A.73.73,0,0,1,29.67,11Z"/><path class="cls-10" d="M9.06,7.76h1v.06H9Z"/><path class="cls-18" d="M67.7,20.27l.62.16a1.72,1.72,0,0,1,.82,2,1.67,1.67,0,0,1-1.58,1.23.32.32,0,0,1-.16.1.77.77,0,0,1-.8-.34,1.92,1.92,0,0,1-.75-1.78C66,20.81,66.63,20.34,67.7,20.27Z"/><text class="cls-19" transform="translate(0.29 22.07)">Insti<tspan class="cls-20" x="5.46" y="0">t</tspan><tspan x="6.58" y="0">uto de Economía Social y Coope</tspan><tspan class="cls-21" x="44.78" y="0">r</tspan><tspan class="cls-22" x="45.86" y="0">ativismo</tspan></text></g></g></svg>